<svg xmlns="http://www.w3.org/2000/svg" viewBox="0 0 512 512" role="img" aria-labelledby="title desc">
  <title>Dark Citrus Soda Can</title>
  <desc>A dark soda can with a citrus slice and leaf, styled for small plugin icons.</desc>

  <!-- Background (optional for visibility on white) -->
  <rect width="512" height="512" rx="96" fill="#0b0b10"></rect>

  <!-- Can shadow -->
  <ellipse cx="256" cy="438" rx="120" ry="20" fill="#000" opacity="0.25"></ellipse>

  <!-- Can body -->
  <defs>
    <linearGradient id="canBody" x1="0" y1="0" x2="0" y2="1">
      <stop offset="0%" stop-color="#1b1e2a"></stop>
      <stop offset="60%" stop-color="#0f111a"></stop>
      <stop offset="100%" stop-color="#0b0c12"></stop>
    </linearGradient>
    <linearGradient id="rim" x1="0" y1="0" x2="0" y2="1">
      <stop offset="0%" stop-color="#b9c2d0"></stop>
      <stop offset="100%" stop-color="#8e97a3"></stop>
    </linearGradient>
    <linearGradient id="highlight" x1="0" y1="0" x2="1" y2="1">
      <stop offset="0%" stop-color="#ffffff" stop-opacity="0.35"></stop>
      <stop offset="100%" stop-color="#ffffff" stop-opacity="0"></stop>
    </linearGradient>
  </defs>

  <!-- Can silhouette -->
  <rect x="156" y="96" width="200" height="320" rx="28" fill="url(#canBody)"></rect>

  <!-- Top rim -->
  <ellipse cx="256" cy="96" rx="100" ry="26" fill="url(#rim)"></ellipse>
  <ellipse cx="256" cy="104" rx="96" ry="22" fill="#dbe2ea"></ellipse>

  <!-- Pull tab -->
  <g transform="translate(0,-2)">
    <ellipse cx="256" cy="102" rx="40" ry="12" fill="#aab4c2"></ellipse>
    <path d="M246 90 h20 a10 10 0 0 1 10 10 v2 a10 10 0 0 1 -10 10 h-20 a10 10 0 0 1 -10 -10 v-2 a10 10 0 0 1 10 -10z" fill="#c7d0dc"></path>
    <circle cx="256" cy="102" r="6" fill="#7a8491"></circle>
  </g>

  <!-- Side highlight -->
  <path d="M186 120 c18 0 18 296 0 296 s-18-296 0-296z" fill="url(#highlight)" opacity="0.6"></path>

  <!-- Citrus emblem -->
  <g transform="translate(256 258)">
    <!-- Leaf -->
    <path d="M72 -78 c36 0 60 22 62 44 c-36 6 -66 -6 -88 -28 c6 -10 14 -16 26 -16z" fill="#38a169"></path>
    <path d="M92 -58 c-18 6 -40 4 -58 -6" stroke="#2f855a" stroke-width="6" fill="none" opacity="0.6"></path>

    <!-- Orange base -->
    <defs>
      <radialGradient id="orange" cx="0.35" cy="0.35" r="0.9">
        <stop offset="0%" stop-color="#ffb24d"></stop>
        <stop offset="70%" stop-color="#ff8a00"></stop>
        <stop offset="100%" stop-color="#d96a00"></stop>
      </radialGradient>
    </defs>
    <circle r="78" fill="url(#orange)" transform="translate(-10 30)"></circle>

    <!-- Segments -->
    <g transform="translate(-10 30)" stroke="#ffffff" stroke-width="10" stroke-linecap="round" stroke-linejoin="round">
      <circle r="64" fill="none" opacity="0.9"></circle>
      <path d="M0 -56 V56"></path>
      <path d="M-56 0 H56"></path>
      <path d="M-40 -40 L40 40"></path>
      <path d="M40 -40 L-40 40"></path>
    </g>

    <!-- Small gloss -->
    <path d="M-58 -4 a58 58 0 0 1 28 -40" stroke="#ffffff" stroke-width="8" opacity="0.25" fill="none"></path>
  </g>

  <!-- Bottom rim -->
  <rect x="156" y="416" width="200" height="14" rx="6" fill="#a3adba" opacity="0.8"></rect>
</svg>
